<svg xmlns="http://www.w3.org/2000/svg" viewBox="0 0 1440 320"><path fill="#0099ff" fill-opacity="1" d="M0,32L26.7,58.7C53.3,85,107,139,160,176C213.3,213,267,235,320,250.7C373.3,267,427,277,480,256C533.3,235,587,181,640,170.7C693.3,160,747,192,800,202.7C853.3,213,907,203,960,170.7C1013.3,139,1067,85,1120,85.3C1173.3,85,1227,139,1280,154.7C1333.3,171,1387,149,1413,138.7L1440,128L1440,320L1413.3,320C1386.7,320,1333,320,1280,320C1226.7,320,1173,320,1120,320C1066.7,320,1013,320,960,320C906.7,320,853,320,800,320C746.7,320,693,320,640,320C586.7,320,533,320,480,320C426.7,320,373,320,320,320C266.7,320,213,320,160,320C106.7,320,53,320,27,320L0,320Z"></path></svg>